<svg width="20" height="20" viewBox="0 0 20 20" fill="none" xmlns="http://www.w3.org/2000/svg">
<g id="Icons / Arrows / Left">
<path id="Shape" fill-rule="evenodd" clip-rule="evenodd" d="M3.9145 6.1885C3.70496 5.97896 3.36523 5.97896 3.15569 6.1885C2.94615 6.39804 2.94615 6.73777 3.15569 6.94731L9.01986 12.8115C9.15038 12.942 9.3314 12.9912 9.50001 12.9591C9.66862 12.9912 9.84964 12.942 9.98015 12.8115L15.8443 6.94731C16.0539 6.73777 16.0539 6.39804 15.8443 6.1885C15.6348 5.97896 15.2951 5.97896 15.0855 6.1885L9.50001 11.774L3.9145 6.1885Z" fill="#50B8E4"/>
<mask id="mask0_881_9441" style="mask-type:luminance" maskUnits="userSpaceOnUse" x="2" y="6" width="15" height="7">
<path id="Shape_2" fill-rule="evenodd" clip-rule="evenodd" d="M3.9145 6.1885C3.70496 5.97896 3.36523 5.97896 3.15569 6.1885C2.94615 6.39804 2.94615 6.73777 3.15569 6.94731L9.01986 12.8115C9.15038 12.942 9.3314 12.9912 9.50001 12.9591C9.66862 12.9912 9.84964 12.942 9.98015 12.8115L15.8443 6.94731C16.0539 6.73777 16.0539 6.39804 15.8443 6.1885C15.6348 5.97896 15.2951 5.97896 15.0855 6.1885L9.50001 11.774L3.9145 6.1885Z" fill="white"/>
</mask>
<g mask="url(#mask0_881_9441)">
</g>
</g>
</svg>
