<svg width="20" height="20" viewBox="0 0 20 20" fill="none" xmlns="http://www.w3.org/2000/svg">
<g id="Icons / Gift / Outline" clip-path="url(#clip0_864_2359)">
<rect width="20" height="20" fill="white"/>
<path id="Shape" fill-rule="evenodd" clip-rule="evenodd" d="M18.0313 6.22981H12.6211C14.1087 5.82582 15.7515 5.13761 16.4506 3.98963C16.8066 3.40498 16.8924 2.7561 16.7057 2.06056C16.3074 0.580586 14.7766 -0.301398 13.2933 0.0948172C11.7462 0.508587 10.7263 2.61588 10.123 4.41851C10.082 4.41696 10.0419 4.4134 10 4.4134C9.91556 4.4134 9.83269 4.4174 9.75159 4.42496C9.23361 2.96676 8.37164 1.28746 7.0886 0.943912C5.79041 0.59703 4.44988 1.36857 4.101 2.66499C3.93858 3.27031 4.0121 3.8363 4.31911 4.34696C4.88766 5.29116 6.1863 5.87582 7.38936 6.22981H1.96891C1.43466 6.22981 1 6.66314 1 7.19602V9.61308C1 10.1455 1.43444 10.5791 1.96891 10.5791H2.33027V19.0338C2.33027 19.5662 2.76471 20 3.29874 20H16.701C17.2351 20 17.6697 19.5665 17.6697 19.0338V10.5788H18.0313C18.5651 10.5788 19 10.1455 19 9.61286V7.19602C18.9998 6.66314 18.5651 6.22981 18.0313 6.22981ZM10 5.12095C10.7535 5.12095 11.2581 5.48827 11.4169 6.12493C11.4314 6.1827 11.3915 6.23004 11.3323 6.23004H8.66772C8.60846 6.23004 8.56858 6.1827 8.58306 6.12493C8.74191 5.48827 9.24653 5.12095 10 5.12095ZM7.81979 19.2925H3.29874C3.1557 19.2925 3.03941 19.1765 3.03941 19.0336V10.5788H7.81979V19.2925ZM7.81979 6.94202V9.87197H1.96891C1.82588 9.87197 1.70936 9.75575 1.70936 9.61308V7.19602C1.70936 7.05313 1.82588 6.93713 1.96891 6.93713H7.81979V6.94202ZM7.99334 5.66249C6.42268 5.25961 5.3397 4.66807 4.92732 3.98274C4.71924 3.63808 4.67312 3.26654 4.78563 2.84788C5.03292 1.92856 5.98468 1.38124 6.90479 1.62723C7.68344 1.83545 8.44248 2.88365 9.05872 4.59273C8.56635 4.79717 8.19541 5.16917 7.99334 5.66249ZM11.4711 19.2925H8.52893V10.5788H11.4709V19.2925H11.4711ZM11.4711 9.87197H8.52893V6.94202H11.4709V9.87197H11.4711ZM10.8274 4.5494C11.5678 2.37411 12.5028 1.0388 13.4766 0.77836C14.5841 0.483032 15.7239 1.14102 16.0206 2.24411C16.1572 2.75255 16.0995 3.2032 15.8444 3.62231C15.3296 4.46718 13.9714 5.1845 12.0044 5.6576C11.7865 5.12939 11.3748 4.74117 10.8274 4.5494ZM16.9604 19.0336C16.9604 19.1765 16.8443 19.2925 16.701 19.2925H12.1802V10.5788H16.9604V19.0336ZM18.2904 9.61308C18.2904 9.75575 18.1741 9.87197 18.0313 9.87197H12.1802V6.94202V6.93713H18.0313C18.1741 6.93713 18.2904 7.05313 18.2904 7.19602V9.61308Z" fill="#1F263E"/>
<line id="Line 7" x1="-1.29289" y1="-1.70711" x2="20.7071" y2="20.2929" stroke="black" stroke-width="2"/>
<line id="Line 8" y1="-1" x2="31.1127" y2="-1" transform="matrix(-0.707107 0.707107 0.707107 0.707107 22 -1)" stroke="black" stroke-width="2"/>
</g>
<defs>
<clipPath id="clip0_864_2359">
<rect width="20" height="20" fill="white"/>
</clipPath>
</defs>
</svg>
