<svg width="20" height="20" viewBox="0 0 20 20" fill="none" xmlns="http://www.w3.org/2000/svg">
<g id="Icons / Arrows / Left">
<path id="Shape" fill-rule="evenodd" clip-rule="evenodd" d="M16.0855 13.8116C16.295 14.0211 16.6348 14.0211 16.8443 13.8116C17.0538 13.6021 17.0538 13.2623 16.8443 13.0528L10.9801 7.18861C10.8496 7.0581 10.6686 7.00888 10.5 7.04095C10.3314 7.00888 10.1504 7.0581 10.0198 7.18861L4.15567 13.0528C3.94613 13.2623 3.94613 13.6021 4.15567 13.8116C4.36521 14.0211 4.70494 14.0211 4.91448 13.8116L10.5 8.22609L16.0855 13.8116Z" fill="#50B8E4"/>
<mask id="mask0_999_6234" style="mask-type:luminance" maskUnits="userSpaceOnUse" x="3" y="7" width="15" height="7">
<path id="Shape_2" fill-rule="evenodd" clip-rule="evenodd" d="M16.0855 13.8116C16.295 14.0211 16.6348 14.0211 16.8443 13.8116C17.0538 13.6021 17.0538 13.2623 16.8443 13.0528L10.9801 7.18861C10.8496 7.0581 10.6686 7.00888 10.5 7.04095C10.3314 7.00888 10.1504 7.0581 10.0198 7.18861L4.15567 13.0528C3.94613 13.2623 3.94613 13.6021 4.15567 13.8116C4.36521 14.0211 4.70494 14.0211 4.91448 13.8116L10.5 8.22609L16.0855 13.8116Z" fill="white"/>
</mask>
<g mask="url(#mask0_999_6234)">
</g>
</g>
</svg>
